<svg width="48" height="38" viewBox="0 0 48 38" fill="none" xmlns="http://www.w3.org/2000/svg">
<path d="M27.0842 18.7774L31.7514 23.863L38.0273 27.6863L39.1216 18.8088L38.0273 10.1295L31.631 13.4885L27.0842 18.7774Z" fill="#00832D"/>
<path d="M0 26.8619V34.425C0 36.1541 1.46914 37.5545 3.28294 37.5545H11.2167L12.8582 31.8379L11.2167 26.8619L5.77253 25.2971L0 26.8619Z" fill="#0066DA"/>
<path d="M11.2167 0L0 10.6926L5.77253 12.2574L11.2167 10.6926L12.8309 5.78446L11.2167 0Z" fill="#E94235"/>
<path d="M11.2167 10.6933H0V26.8627H11.2167V10.6933Z" fill="#2684FC"/>
<path d="M45.1935 4.52768L38.0257 10.1296V27.6864L45.2263 33.3143C46.3042 34.1175 47.88 33.3847 47.88 32.0781V5.73779C47.88 4.41558 46.2686 3.69059 45.1935 4.52768ZM27.0826 18.7775V26.8622H11.2151V37.5548H34.7428C36.5566 37.5548 38.0257 36.1544 38.0257 34.4253V27.6864L27.0826 18.7775Z" fill="#00AC47"/>
<path d="M34.7428 0H11.2151V10.6926H27.0826V18.7773L38.0257 10.1345V3.12953C38.0257 1.40051 36.5566 0 34.7428 0Z" fill="#FFBA00"/>
</svg>
